# xmcd CD database file
#
# Track frame offsets:
#	150
#	10885
#	18939
#	28473
#	36625
#	49260
#	59851
#	68419
#	81730
#	91042
#	96712
#	99963
#	111022
#
# Disc length: 1574 seconds
#
# Revision: 0
# Processed by: cddbd v1.5.2PL0 Copyright (c) Steve Scherf et al.
# Submitted via: CDex 1.51
#
DISCID=b406240d
DTITLE=1328 - Beercore
DYEAR=2004
DGENRE=Blues
TTITLE0=Drinking
TTITLE1=Kids
TTITLE2=Beercore
TTITLE3=Riot
TTITLE4=Fuck you all
TTITLE5=Tekero
TTITLE6=Burn down the bush
TTITLE7=Horseriding in the desert
TTITLE8=One year wasted
TTITLE9=Al
TTITLE10=More beer
TTITLE11=Larry
TTITLE12=Never going home
EXTD=YEAR: 2004
EXTT0=
EXTT1=
EXTT2=
EXTT3=
EXTT4=
EXTT5=
EXTT6=
EXTT7=
EXTT8=
EXTT9=
EXTT10=
EXTT11=
EXTT12=
PLAYORDER=
